<svg width="24" height="24" viewBox="0 0 24 24" fill="none" xmlns="http://www.w3.org/2000/svg">
<path d="M12 24C18.6274 24 24 18.6274 24 12C24 5.37258 18.6274 0 12 0C5.37258 0 0 5.37258 0 12C0 18.6274 5.37258 24 12 24Z" fill="#2561A1"/>
<path d="M12 24C18.6274 24 24 18.6274 24 12C24 5.37258 18.6274 0 12 0C5.37258 0 0 5.37258 0 12C0 18.6274 5.37258 24 12 24Z" fill="#6D18AB"/>
<path d="M23.5714 15.1901L19.1472 10.8343L16.7459 10.8348L12.4602 7.47552L7.1652 10.8885L6.67981 13.8944L16.1828 23.2505C19.7729 21.9154 22.5471 18.9127 23.5714 15.1901Z" fill="black" fill-opacity="0.09"/>
<path d="M4.82593 12.0564L10.9468 18.1254L12.5305 16.5168L9.08487 13.152L19.1827 13.0734L19.1651 10.816L9.06626 10.8946L12.4601 7.47553L10.8515 5.89177L4.82593 12.0564Z" fill="white"/>
</svg>
