<svg width="33" height="33" viewBox="0 0 33 33" fill="none" xmlns="http://www.w3.org/2000/svg">
<path d="M31.9687 16.3827V29.4087C31.9687 29.8033 31.812 30.1817 31.533 30.4608C31.2541 30.7398 30.8757 30.8967 30.4812 30.8969H21.6491C21.4537 30.8969 21.2603 30.8583 21.0798 30.7835C20.8992 30.7087 20.7352 30.5991 20.5971 30.4609C20.459 30.3227 20.3494 30.1586 20.2747 29.9781C20.1999 29.7976 20.1615 29.6041 20.1616 29.4087V16.3827C20.1615 16.1873 20.2 15.9939 20.2747 15.8134C20.3495 15.6329 20.459 15.4689 20.5972 15.3307C20.7353 15.1926 20.8993 15.083 21.0798 15.0083C21.2603 14.9335 21.4538 14.8951 21.6491 14.8951H23.6581V14.8996C23.6581 15.0449 23.6867 15.1887 23.7423 15.3229C23.7978 15.4571 23.8793 15.5791 23.982 15.6818C24.0847 15.7845 24.2067 15.8659 24.3409 15.9215C24.4751 15.9771 24.6189 16.0057 24.7642 16.0056H27.3661C27.5114 16.0057 27.6552 15.9771 27.7894 15.9215C27.9236 15.8659 28.0456 15.7845 28.1483 15.6818C28.251 15.5791 28.3325 15.4571 28.388 15.3229C28.4436 15.1887 28.4722 15.0449 28.4721 14.8996V14.8951H30.4812C30.8757 14.8951 31.254 15.0519 31.533 15.3309C31.812 15.6098 31.9687 15.9882 31.9687 16.3827ZM24.2937 24.6295V22.5038H22.1686V24.6295H24.2937Z" fill="#F8EC7D"/>
<path d="M23.6581 14.8951V14.8274C23.6581 14.6822 23.6867 14.5383 23.7423 14.4041C23.7978 14.2699 23.8793 14.148 23.982 14.0453C24.0847 13.9426 24.2067 13.8611 24.3409 13.8055C24.4751 13.75 24.6189 13.7214 24.7642 13.7214H27.3661C27.5114 13.7214 27.6552 13.75 27.7894 13.8055C27.9236 13.8611 28.0456 13.9426 28.1483 14.0453C28.251 14.148 28.3325 14.2699 28.388 14.4041C28.4436 14.5383 28.4722 14.6822 28.4721 14.8274V14.8996C28.4722 15.0449 28.4436 15.1887 28.388 15.3229C28.3325 15.4571 28.251 15.5791 28.1483 15.6818C28.0456 15.7845 27.9236 15.8659 27.7894 15.9215C27.6552 15.9771 27.5114 16.0057 27.3661 16.0056H24.7642C24.6189 16.0057 24.4751 15.9771 24.3409 15.9215C24.2067 15.8659 24.0847 15.7845 23.982 15.6818C23.8793 15.5791 23.7978 15.4571 23.7423 15.3229C23.6867 15.1887 23.6581 15.0449 23.6581 14.8996V14.8951Z" fill="#6FE3FF"/>
<path d="M25.2211 9.0866V13.7214H24.7642C24.6189 13.7214 24.4751 13.75 24.3409 13.8055C24.2067 13.8611 24.0847 13.9426 23.982 14.0453C23.8793 14.148 23.7978 14.2699 23.7423 14.4041C23.6867 14.5383 23.6581 14.6822 23.6581 14.8274V14.8951H21.6491C21.4538 14.8951 21.2603 14.9335 21.0798 15.0083C20.8993 15.083 20.7353 15.1926 20.5972 15.3307C20.459 15.4689 20.3495 15.6329 20.2747 15.8134C20.2 15.9939 20.1615 16.1873 20.1616 16.3827V25.9733L13.1259 30.0352V16.0682L25.2198 9.08595L25.2211 9.0866Z" fill="#C16752"/>
<path d="M13.1259 16.0682L6.96033 12.5084L19.0537 5.52556H19.0543L25.2199 9.08595L13.1259 16.0682Z" fill="#AF593C"/>
<path d="M24.2937 22.5038H22.1686V24.6295H24.2937V22.5038Z" fill="#6FE3FF"/>
<path d="M19.0543 5.52557L6.96096 12.5084L1.0332 9.08596L13.1265 2.1031L19.0543 5.52557Z" fill="#C16752"/>
<path d="M13.1259 16.0682V30.0352L1.03125 23.0523V9.0866L1.03254 9.08595L6.96029 12.5084L13.1259 16.0682Z" fill="#E48E66"/>
<path d="M22.6411 20.9479H22.1686C22.049 20.9479 21.9342 20.9004 21.8496 20.8158C21.765 20.7312 21.7175 20.6164 21.7175 20.4967V18.3711C21.7175 18.2514 21.765 18.1367 21.8496 18.0521C21.9342 17.9674 22.049 17.9199 22.1686 17.9199H24.2937C24.4133 17.9199 24.5281 17.9674 24.6127 18.0521C24.6973 18.1367 24.7448 18.2514 24.7448 18.3711V18.6747C24.7449 18.7814 24.7072 18.8847 24.6383 18.9663C24.5693 19.0478 24.4738 19.1023 24.3685 19.12C24.2632 19.1377 24.1551 19.1175 24.0633 19.063C23.9715 19.0085 23.902 18.9232 23.8672 18.8222H22.6198V20.0456H22.6411C22.7607 20.0456 22.8755 20.0931 22.9601 20.1777C23.0447 20.2623 23.0923 20.3771 23.0923 20.4967C23.0923 20.6164 23.0447 20.7312 22.9601 20.8158C22.8755 20.9004 22.7607 20.9479 22.6411 20.9479Z" fill="#6FE3FF"/>
<path d="M22.6411 29.2127H22.1686C22.049 29.2127 21.9342 29.1652 21.8496 29.0806C21.765 28.996 21.7175 28.8812 21.7175 28.7616V26.6365C21.7175 26.5169 21.765 26.4021 21.8496 26.3175C21.9342 26.2329 22.049 26.1854 22.1686 26.1854H24.2937C24.4133 26.1854 24.5281 26.2329 24.6127 26.3175C24.6973 26.4021 24.7448 26.5169 24.7448 26.6365V27.071C24.7459 27.1302 24.7354 27.1891 24.7137 27.2442C24.692 27.2994 24.6597 27.3498 24.6186 27.3924C24.5775 27.4351 24.5284 27.4693 24.4741 27.4929C24.4197 27.5166 24.3613 27.5294 24.302 27.5305C24.2428 27.5316 24.1839 27.521 24.1287 27.4994C24.0736 27.4777 24.0232 27.4454 23.9806 27.4043C23.9379 27.3632 23.9037 27.314 23.88 27.2597C23.8563 27.2054 23.8436 27.147 23.8425 27.0877H22.6198V28.3104H22.6411C22.7607 28.3104 22.8755 28.3579 22.9601 28.4425C23.0447 28.5271 23.0923 28.6419 23.0923 28.7616C23.0923 28.8812 23.0447 28.996 22.9601 29.0806C22.8755 29.1652 22.7607 29.2127 22.6411 29.2127Z" fill="#6FE3FF"/>
<path d="M24.0114 20.8822C23.9521 20.8823 23.8935 20.8706 23.8388 20.848C23.784 20.8253 23.7343 20.7921 23.6925 20.7502L22.9711 20.0296C22.9292 19.9877 22.8959 19.9379 22.8733 19.8832C22.8506 19.8285 22.8389 19.7698 22.8389 19.7105C22.8389 19.6513 22.8506 19.5926 22.8733 19.5379C22.8959 19.4831 22.9292 19.4334 22.9711 19.3915C23.013 19.3496 23.0627 19.3164 23.1175 19.2937C23.1722 19.271 23.2309 19.2593 23.2901 19.2593C23.3494 19.2593 23.408 19.271 23.4628 19.2937C23.5175 19.3164 23.5673 19.3496 23.6092 19.3915L24.0114 19.7934L25.3327 18.4721C25.3746 18.4302 25.4243 18.3969 25.4791 18.3743C25.5338 18.3516 25.5925 18.3399 25.6517 18.3399C25.711 18.3399 25.7697 18.3516 25.8244 18.3743C25.8792 18.3969 25.9289 18.4302 25.9708 18.4721C26.0127 18.514 26.0459 18.5637 26.0686 18.6185C26.0913 18.6732 26.1029 18.7319 26.1029 18.7911C26.1029 18.8504 26.0913 18.909 26.0686 18.9638C26.0459 19.0185 26.0127 19.0683 25.9708 19.1102L24.3305 20.7505C24.2886 20.7924 24.2388 20.8256 24.184 20.8482C24.1293 20.8708 24.0706 20.8823 24.0114 20.8822Z" fill="#2561A1"/>
<path d="M24.0114 29.2127C23.9521 29.2128 23.8935 29.2012 23.8388 29.1786C23.784 29.1559 23.7343 29.1227 23.6925 29.0807L22.9711 28.3601C22.9292 28.3182 22.8959 28.2685 22.8733 28.2138C22.8506 28.159 22.8389 28.1004 22.8389 28.0411C22.8389 27.9819 22.8506 27.9232 22.8733 27.8684C22.8959 27.8137 22.9292 27.764 22.9711 27.7221C23.013 27.6802 23.0627 27.6469 23.1175 27.6243C23.1722 27.6016 23.2309 27.5899 23.2901 27.5899C23.3494 27.5899 23.408 27.6016 23.4628 27.6243C23.5175 27.6469 23.5673 27.6802 23.6092 27.7221L24.0114 28.1239L25.3327 26.8026C25.3746 26.7607 25.4243 26.7275 25.4791 26.7048C25.5338 26.6822 25.5925 26.6705 25.6517 26.6705C25.711 26.6705 25.7697 26.6822 25.8244 26.7048C25.8792 26.7275 25.9289 26.7607 25.9708 26.8026C26.0127 26.8445 26.0459 26.8943 26.0686 26.949C26.0913 27.0038 26.1029 27.0624 26.1029 27.1217C26.1029 27.1809 26.0913 27.2396 26.0686 27.2943C26.0459 27.3491 26.0127 27.3988 25.9708 27.4407L24.3305 29.0811C24.2886 29.1229 24.2388 29.1561 24.184 29.1787C24.1293 29.2013 24.0706 29.2129 24.0114 29.2127Z" fill="#2561A1"/>
<path d="M29.9617 19.8851H27.1277C27.008 19.8851 26.8933 19.8375 26.8087 19.7529C26.724 19.6683 26.6765 19.5536 26.6765 19.4339C26.6765 19.3142 26.724 19.1995 26.8087 19.1149C26.8933 19.0303 27.008 18.9827 27.1277 18.9827H29.9617C30.0813 18.9827 30.1961 19.0303 30.2807 19.1149C30.3653 19.1995 30.4129 19.3142 30.4129 19.4339C30.4129 19.5536 30.3653 19.6683 30.2807 19.7529C30.1961 19.8375 30.0813 19.8851 29.9617 19.8851Z" fill="#E48E66"/>
<path d="M29.9617 24.0178H27.1277C27.008 24.0178 26.8933 23.9703 26.8087 23.8857C26.724 23.8011 26.6765 23.6863 26.6765 23.5666C26.6765 23.447 26.724 23.3322 26.8087 23.2476C26.8933 23.163 27.008 23.1155 27.1277 23.1155H29.9617C30.0813 23.1155 30.1961 23.163 30.2807 23.2476C30.3653 23.3322 30.4129 23.447 30.4129 23.5666C30.4129 23.6863 30.3653 23.8011 30.2807 23.8857C30.1961 23.9703 30.0813 24.0178 29.9617 24.0178Z" fill="#E48E66"/>
<path d="M29.9617 28.1505H27.1277C27.008 28.1505 26.8933 28.103 26.8087 28.0184C26.724 27.9338 26.6765 27.819 26.6765 27.6994C26.6765 27.5797 26.724 27.465 26.8087 27.3803C26.8933 27.2957 27.008 27.2482 27.1277 27.2482H29.9617C30.0813 27.2482 30.1961 27.2957 30.2807 27.3803C30.3653 27.465 30.4129 27.5797 30.4129 27.6994C30.4129 27.819 30.3653 27.9338 30.2807 28.0184C30.1961 28.103 30.0813 28.1505 29.9617 28.1505Z" fill="#E48E66"/>
</svg>
