<svg width="37" height="37" viewBox="0 0 37 37" fill="none" xmlns="http://www.w3.org/2000/svg">
<g clip-path="url(#clip0)">
<path d="M27.7222 5.53642C24.6343 2.69516 20.5609 1.14116 16.3648 1.18365C14.8267 1.19926 13.3149 1.42451 11.8554 1.85456L10.9746 0.368636C10.6794 -0.129419 9.95582 -0.121108 9.6721 0.383595L6.53924 5.95701C6.2556 6.46164 6.62451 7.08406 7.20336 7.07749L13.5966 7.00479C14.1755 6.99821 14.5302 6.36741 14.235 5.86935L13.4498 4.54458C14.4001 4.32301 15.3744 4.20442 16.3629 4.19199C23.7423 4.09928 29.8795 9.99659 30.0684 17.3742C30.2636 24.999 24.1179 31.2641 16.5363 31.2641C9.30925 31.2641 3.38687 25.5712 3.01795 18.4343C2.9975 18.0384 2.67158 17.7275 2.27513 17.7275H0.75387C0.329599 17.7275 -0.0099775 18.0817 0.00946196 18.5055C0.197569 22.5975 1.86763 26.4197 4.76216 29.3508C7.78077 32.4075 11.8864 34.1792 16.1815 34.2686C20.742 34.3635 25.0442 32.6279 28.2546 29.4073C31.3483 26.3036 33.0812 22.1097 33.0811 17.7274C33.081 13.0719 31.1712 8.70997 27.7222 5.53642Z" fill="#9D66D5"/>
<path d="M29.2548 7.14462C30.585 9.59457 31.3405 12.4018 31.3405 15.3856C31.3405 24.9383 23.5965 32.6824 14.0437 32.6824C11.4476 32.6824 8.98563 32.1093 6.77582 31.0846C9.4946 33.0701 12.7782 34.1979 16.1813 34.2687C20.7418 34.3635 25.0439 32.628 28.2543 29.4073C31.3481 26.3037 33.0809 22.1098 33.0809 17.7276C33.0809 13.8155 31.7319 10.1111 29.2548 7.14462Z" fill="#8659B9"/>
<path d="M35.4018 33.2726L33.264 35.4103C32.9733 35.701 32.5019 35.701 32.2112 35.4103L30.8232 34.0224L34.0138 30.8318L35.4018 32.2197C35.6925 32.5104 35.6925 32.9818 35.4018 33.2726Z" fill="#2B4D66"/>
<path d="M36.9915 35.3941V36.2556C36.9915 36.6668 36.6582 37.0001 36.247 37.0001H35.3854C35.188 37.0001 34.9986 36.9217 34.8591 36.7821L33.3757 35.2987L35.2901 33.3843L36.7734 34.8677C36.9131 35.0072 36.9915 35.1966 36.9915 35.3941Z" fill="#4A80AA"/>
<path d="M26.25 35.283C31.2341 35.283 35.2744 31.2426 35.2744 26.2586C35.2744 21.2745 31.2341 17.2342 26.25 17.2342C21.266 17.2342 17.2256 21.2745 17.2256 26.2586C17.2256 31.2426 21.266 35.283 26.25 35.283Z" fill="#9DC6FB"/>
<path d="M31.7075 19.0715C32.8601 20.5871 33.5448 22.4779 33.5448 24.5289C33.5448 29.5129 29.5044 33.5533 24.5204 33.5533C22.4693 33.5533 20.5785 32.8686 19.0629 31.716C20.7112 33.8834 23.317 35.283 26.25 35.283C31.2341 35.283 35.2744 31.2426 35.2744 26.2586C35.2744 23.3255 33.8748 20.7198 31.7075 19.0715Z" fill="#80B4FB"/>
<path d="M26.2501 32.8764C29.905 32.8764 32.8679 29.9135 32.8679 26.2586C32.8679 22.6036 29.905 19.6407 26.2501 19.6407C22.5951 19.6407 19.6322 22.6036 19.6322 26.2586C19.6322 29.9135 22.5951 32.8764 26.2501 32.8764Z" fill="#E4F6FF"/>
<path d="M30.2465 20.9837C31.0891 22.0942 31.5895 23.4787 31.5895 24.9801C31.5895 28.6351 28.6265 31.598 24.9716 31.598C23.4701 31.598 22.0857 31.0976 20.9752 30.255C22.1837 31.8477 24.0966 32.8765 26.25 32.8765C29.905 32.8765 32.8679 29.9135 32.8679 26.2586C32.8679 24.1051 31.8391 22.1922 30.2465 20.9837Z" fill="#D3EFFB"/>
<path d="M16.5362 16.7818C16.2278 16.7818 15.9778 16.5318 15.9778 16.2235V7.1991C15.9778 6.89067 16.2278 6.64078 16.5362 6.64078C16.8445 6.64078 17.0945 6.89074 17.0945 7.1991V16.2235C17.0946 16.5319 16.8445 16.7818 16.5362 16.7818Z" fill="#DD636E"/>
<path d="M15.0321 18.2859H9.01584C8.70749 18.2859 8.45752 18.0359 8.45752 17.7276C8.45752 17.4192 8.70749 17.1693 9.01584 17.1693H15.0321C15.3405 17.1693 15.5904 17.4192 15.5904 17.7276C15.5904 18.0359 15.3405 18.2859 15.0321 18.2859Z" fill="#DD636E"/>
<path d="M16.5361 19.5142C17.5229 19.5142 18.3228 18.7143 18.3228 17.7276C18.3228 16.7408 17.5229 15.9409 16.5361 15.9409C15.5494 15.9409 14.7495 16.7408 14.7495 17.7276C14.7495 18.7143 15.5494 19.5142 16.5361 19.5142Z" fill="#F6E781"/>
</g>
<defs>
<clipPath id="clip0">
<rect width="37" height="37" fill="white"/>
</clipPath>
</defs>
</svg>
