<svg width="37" height="36" viewBox="0 0 37 36" fill="none" xmlns="http://www.w3.org/2000/svg">
<g clip-path="url(#clip0)">
<path d="M34.7675 11.2479H30.6436L4.90076 23.1999V27.4513C4.94493 28.6892 5.98884 29.6766 7.27513 29.6973H34.7675C36.0096 29.6759 36.9986 28.6892 36.9764 27.4932C36.9762 27.4792 36.9758 27.4653 36.9753 27.4513V13.5742C37.045 12.3577 36.0774 11.3172 34.8141 11.2499C34.7985 11.2492 34.783 11.2485 34.7675 11.2479Z" fill="#2BA037"/>
<path d="M32.3931 11.3282V22.518C32.3931 23.7585 31.3487 24.764 30.0604 24.764H2.56807C1.30274 24.7643 0.276851 23.7768 0.276611 22.5585C0.276611 22.545 0.276771 22.5316 0.27701 22.518V8.68105C0.253968 7.46298 1.26089 6.45756 2.52597 6.43545C2.54 6.43522 2.55396 6.43506 2.56799 6.43506H30.0604C31.3486 6.43506 32.393 7.44064 32.393 8.68105V11.3282H32.3931Z" fill="#3BB54A"/>
<path d="M28.186 22.3978C29.1062 22.3978 29.8522 21.6795 29.8522 20.7935C29.8522 19.9074 29.1062 19.1892 28.186 19.1892C27.2658 19.1892 26.5198 19.9074 26.5198 20.7935C26.5198 21.6795 27.2658 22.3978 28.186 22.3978Z" fill="#2BA037"/>
<path d="M16.3143 22.7587C20.4092 22.7587 23.7289 19.5624 23.7289 15.6196C23.7289 11.6768 20.4092 8.48053 16.3143 8.48053C12.2193 8.48053 8.89963 11.6768 8.89963 15.6196C8.89963 19.5624 12.2193 22.7587 16.3143 22.7587Z" fill="#2BA037"/>
<path d="M4.44252 11.9699C5.36274 11.9699 6.10872 11.2516 6.10872 10.3656C6.10872 9.47953 5.36274 8.76127 4.44252 8.76127C3.52229 8.76127 2.77631 9.47953 2.77631 10.3656C2.77631 11.2516 3.52229 11.9699 4.44252 11.9699Z" fill="#2BA037"/>
<path d="M18.8136 13.2533H18.0638C18.0141 12.9816 17.9445 12.7135 17.8556 12.4512H18.8136C19.2737 12.4512 19.6467 12.0921 19.6467 11.649C19.6467 11.206 19.2737 10.8469 18.8136 10.8469H13.69C13.2299 10.8469 12.8569 11.206 12.8569 11.649C12.8569 12.0921 13.2299 12.4512 13.69 12.4512H15.1896C15.6061 12.4512 15.9811 12.8522 16.231 13.2533H13.69C13.2299 13.2533 12.8569 13.6125 12.8569 14.0555C12.8569 14.4985 13.2299 14.8576 13.69 14.8576H16.231C16.1894 14.8576 16.1894 14.8977 16.1477 14.9378C15.8804 15.155 15.5392 15.2693 15.1896 15.2587H13.69C13.3497 15.2592 13.0477 15.4692 12.9403 15.7801C12.8258 16.0882 12.907 16.4323 13.1485 16.6625L16.7725 19.9914C16.9305 20.1317 17.1411 20.2041 17.3557 20.1919C17.8157 20.1857 18.1834 19.8216 18.177 19.3785C18.1739 19.1724 18.0887 18.9754 17.9388 18.8282L15.7311 16.8229C16.8403 16.6622 17.7511 15.8948 18.0637 14.8576H18.8135C19.2737 14.8576 19.6466 14.4985 19.6466 14.0555C19.6467 13.6125 19.2737 13.2533 18.8136 13.2533Z" fill="#FEDB41"/>
</g>
<defs>
<clipPath id="clip0">
<rect width="36.7021" height="35.3382" fill="white" transform="translate(0.276611 0.397057)"/>
</clipPath>
</defs>
</svg>
