<svg width="40" height="37" viewBox="0 0 40 37" fill="none" xmlns="http://www.w3.org/2000/svg">
<path d="M39.1147 21.9351C38.5798 20.9855 37.5698 20.3957 36.4787 20.3957C35.9633 20.3957 35.4516 20.5304 34.999 20.7852L26.1915 25.7453C26.0765 25.81 25.9935 25.9195 25.962 26.0477C25.8084 26.6747 25.4467 27.5502 24.5972 28.1599C23.6569 28.8347 22.3848 28.9753 20.8348 28.5778C20.8255 28.5754 20.8163 28.5728 20.8081 28.5702L15.7273 26.9927C15.4201 26.8973 15.2478 26.5697 15.3432 26.2626C15.4195 26.0169 15.6434 25.8518 15.9002 25.8518C15.9585 25.8518 16.017 25.8607 16.0735 25.8782L21.1279 27.4477C21.136 27.4501 21.1443 27.4524 21.1526 27.4546C22.3445 27.7554 23.2754 27.6717 23.9167 27.2118C24.7269 26.6305 24.8695 25.6086 24.8864 25.4585C24.887 25.4537 24.8876 25.4489 24.8879 25.444C24.8882 25.4416 24.8883 25.4402 24.8884 25.4399C24.8885 25.4383 24.8886 25.4367 24.8887 25.4352C24.8888 25.4342 24.8888 25.4332 24.889 25.4322C24.9854 24.1721 24.1722 23.0086 22.954 22.6645L22.9316 22.6577C22.8945 22.6456 19.1554 21.4244 16.7731 20.7446C16.5084 20.6692 15.7791 20.4936 14.7243 20.4936C13.249 20.4936 11.0483 20.8432 8.93745 22.5119L0.177201 29.598C-0.0231927 29.76 -0.058731 30.0518 0.0967889 30.2573L4.84004 36.5227C4.91695 36.6241 5.0311 36.6907 5.15723 36.7077C5.17834 36.7105 5.19945 36.7119 5.22067 36.7119C5.32538 36.7119 5.42796 36.6774 5.51187 36.6127L11.6215 31.9084C11.7588 31.8029 11.9428 31.7631 12.1115 31.8029L21.9795 34.1348C22.7113 34.3077 23.5021 34.1961 24.1567 33.8272L37.9646 26.0507C39.4163 25.2329 39.9322 23.3869 39.1147 21.9351Z" fill="#9D66D5"/>
<path d="M33.6268 0H15.5925C15.0067 0 14.5316 0.474941 14.5316 1.06085V5.88812C14.5316 6.47402 15.0067 6.94896 15.5925 6.94896H15.9887V17.1992C15.9887 17.7851 16.4636 18.26 17.0495 18.26H32.1693C32.7552 18.26 33.2302 17.7851 33.2302 17.1992V6.94885H33.6267C34.2125 6.94885 34.6876 6.47391 34.6876 5.88801V1.06085C34.6877 0.474941 34.2126 0 33.6268 0ZM26.8411 9.46932H22.3779C21.91 9.46932 21.5293 9.08858 21.5293 8.62064C21.5293 8.1527 21.91 7.77197 22.3779 7.77197H26.8411C27.3091 7.77197 27.6898 8.1527 27.6898 8.62064C27.6898 9.08858 27.3091 9.46932 26.8411 9.46932ZM32.566 4.82716H32.1694H17.0495H16.6533V2.12169H32.566V4.82716Z" fill="#DD636E"/>
</svg>
